<svg xmlns="http://www.w3.org/2000/svg" viewBox="0 0 600 600" role="img" aria-label="Natural Skin balm tin surrounded by botanical sprigs">
  <rect width="600" height="600" fill="#EDE3D2"/>
  <ellipse cx="300" cy="470" rx="170" ry="22" fill="#4A3B30" opacity="0.08"/>
  <!-- botanical sprigs -->
  <g stroke="#6E7456" stroke-width="4" stroke-linecap="round" fill="none" opacity="0.85">
    <path d="M130 460 C110 380 140 320 120 240"/>
    <path d="M120 240 C100 250 80 240 70 220"/>
    <path d="M120 280 C95 290 75 282 65 262"/>
    <path d="M130 330 C105 340 85 332 75 312"/>
    <path d="M470 460 C495 380 462 318 480 235"/>
    <path d="M480 235 C500 245 522 236 530 216"/>
    <path d="M478 278 C503 286 524 278 533 258"/>
    <path d="M470 328 C495 338 516 330 525 310"/>
  </g>
  <!-- tin body -->
  <rect x="150" y="220" width="300" height="220" rx="18" fill="#F7F1E6" stroke="#4A3B30" stroke-width="3"/>
  <!-- lid -->
  <rect x="140" y="170" width="320" height="70" rx="16" fill="#C17F59" stroke="#4A3B30" stroke-width="3"/>
  <rect x="140" y="170" width="320" height="22" rx="10" fill="#D2966F"/>
  <!-- label -->
  <rect x="190" y="280" width="220" height="120" rx="6" fill="#F0E6D6" stroke="#6E7456" stroke-width="2"/>
  <text x="300" y="335" font-family="Georgia, 'Times New Roman', serif" font-size="24" fill="#4A3B30" text-anchor="middle" font-weight="600">Tallow + Botanicals</text>
  <text x="300" y="368" font-family="Georgia, 'Times New Roman', serif" font-size="14" fill="#A8784F" text-anchor="middle" letter-spacing="2">100% ORGANIC</text>
</svg>
